<svg class="svg-type-awards" viewBox="0 0 500 210" version="1.1" xmlns="http://www.w3.org/2000/svg" xmlns:xlink="http://www.w3.org/1999/xlink">
  <path class="hexagon" fill="#2B7E99" d="M179.892585,144.067416 C179.895061,149.589538 176.016645,156.306466 171.234808,159.067261 L103.706218,198.054911 C98.9221837,200.816974 91.1755007,200.820301 86.3870822,198.052844 L18.8037657,158.993191 C14.0227053,156.229986 10.1448871,149.5219 10.1424077,143.991279 L10.1074146,65.9325838 C10.104939,60.4104615 13.9833548,53.6935339 18.7651921,50.9327389 L86.2937823,11.9450891 C91.0778163,9.1830258 98.8244993,9.17969869 103.612918,11.9471563 L171.196234,51.0068089 C175.977295,53.7700139 179.855113,60.4781001 179.857592,66.008721 L179.892585,144.067416 Z"></path>
  <path class="logo-graphic" fill="#EBEBEA" d="M68.4062855,148.263956 C53.1422927,144.039958 44.4062968,129.019965 48.9302947,114.775971 C52.4422931,103.723977 64.8462872,97.3559796 76.7022816,100.443978 C76.3262818,101.283978 75.990282,102.151977 75.7062821,103.047977 C75.1782824,104.707976 74.8142825,106.371975 74.5902826,108.031975 C71.8382839,107.599975 69.0342853,108.019975 66.5462864,109.279974 C63.6022878,110.767973 61.4622888,113.239972 60.5062893,116.231971 C58.1422904,123.675967 62.7062882,131.523964 70.6822845,133.731963 C74.7902825,134.867962 79.2142805,134.595962 83.1182786,133.027963 C87.0902768,137.091961 92.2502743,140.227959 98.2982715,141.899959 C99.254271,142.163959 100.218271,142.383958 101.19027,142.587958 C91.9422745,149.227955 79.8102802,151.415954 68.4062855,148.263956 M72.2742837,95.3959805 C68.2382856,95.1719806 64.2782875,95.7879803 60.6382892,97.1319797 C61.3582889,96.0199802 62.3742884,95.0919807 63.6342878,94.455981 C65.4902869,93.5159814 67.6262859,93.3079815 69.654285,93.8679813 C70.6742845,94.1479811 71.5702841,94.6919809 72.2742837,95.3959805 M43.8142971,96.1639802 C47.3622954,84.9959854 59.9862895,78.6039884 71.9542839,81.9159869 C77.1302814,83.3479862 81.3302795,86.9519845 83.3262785,91.6199823 C81.6502793,93.0679816 80.15828,94.7199809 78.8982806,96.55198 C78.7222807,96.49998 78.5542808,96.43998 78.3822809,96.3959801 C78.2702809,96.3599801 78.150281,96.3359801 78.034281,96.3079801 C77.0262815,93.1799816 74.3702827,90.6679828 70.9662843,89.7319832 C67.7582859,88.8399836 64.3702874,89.1759835 61.4302888,90.6639828 C58.4862902,92.1519821 56.3422912,94.6199809 55.3902917,97.6159795 C55.1422918,98.4159791 54.9662919,99.2319787 54.8622919,100.055978 C50.0822942,103.215977 46.3542959,107.815975 44.5382968,113.435972 C42.2902978,107.947975 41.998298,101.879977 43.8142971,96.1639802 M80.12628,129.491964 C77.5142813,130.295964 74.7062826,130.343964 71.9982839,129.587964 C66.4662865,128.059965 63.3022879,122.619968 64.9382872,117.45597 C65.5422869,115.567971 66.8942863,114.011972 68.7502854,113.071972 C70.4702846,112.199973 72.4342837,111.963973 74.3262828,112.379973 C74.3742827,115.647971 74.9902825,118.84397 76.0822819,121.871968 C75.2622823,122.143968 74.3462828,122.183968 73.4662832,121.943968 L72.1502838,126.079966 C74.0742829,126.607966 76.0742819,126.511966 77.8622811,125.867966 C78.5302808,127.115966 79.2862804,128.331965 80.12628,129.491964 M127.982258,62.1159962 L125.510259,65.7639945 C142.98225,76.0599896 151.078247,96.1759802 145.194249,114.683971 C142.410251,123.447967 136.138254,130.671964 127.530258,135.031962 C118.918262,139.39196 109.006266,140.359959 99.6182709,137.759961 C84.350278,133.539963 75.6142822,118.51997 80.14228,104.275976 C83.6862784,93.1119816 96.3102724,86.7199846 108.274267,90.0319831 C112.794265,91.2839825 116.526263,94.0959811 118.770262,97.9639793 C121.018261,101.827978 121.518261,106.279975 120.178261,110.491973 C118.038262,117.23197 110.426266,121.087968 103.206269,119.087969 C97.6742718,117.55997 94.5102733,112.119973 96.1502725,106.959975 C96.7502722,105.067976 98.1022716,103.511977 99.9582707,102.571977 C101.81427,101.627978 103.954269,101.419978 105.974268,101.983977 C107.478267,102.395977 108.714267,103.331977 109.462266,104.619976 C110.210266,105.899976 110.378266,107.379975 109.926266,108.779974 C109.266266,110.863973 106.910267,112.059973 104.678268,111.443973 L103.362269,115.579971 C108.042267,116.87597 112.978265,114.375972 114.362264,110.007974 C115.158264,107.499975 114.862264,104.855976 113.530264,102.559977 C112.194265,100.259978 109.978266,98.587979 107.290267,97.8439794 C104.082269,96.9559798 100.69427,97.2879796 97.7542717,98.7759789 C94.8102731,100.267978 92.6662741,102.735977 91.7142746,105.727976 C89.3502757,113.171972 93.9142736,121.019968 101.89427,123.227967 C111.554265,125.899966 121.74626,120.739969 124.610259,111.723973 C126.302258,106.399975 125.674259,100.783978 122.83826,95.9039803 C120.958261,92.6799818 118.262262,90.0359831 115.002264,88.1559839 C113.042265,74.0359906 104.530269,61.5879964 91.6542746,54 L89.1862758,57.6479983 C99.1062711,63.4959955 106.170268,72.5159913 109.182266,82.9479864 C105.678268,78.8959883 101.45827,75.3759899 96.7702722,72.6159912 L94.3062734,76.2639895 C98.3102715,78.6279884 101.93027,81.607987 105.006268,85.0239854 C98.6062713,84.3199857 92.3062743,85.7879851 87.1022768,88.9039836 C84.414278,83.5599861 79.3822804,79.467988 73.2662833,77.7799888 C58.85429,73.7919907 43.6502972,81.4919871 39.3782992,94.9399807 C36.6543005,103.519977 38.0062998,112.799972 43.0942974,120.395969 L43.1982974,120.339969 C42.1702979,134.603962 51.8022934,148.171956 67.0942862,152.399954 C81.3182795,156.335952 96.5622723,152.887953 107.270267,143.403958 C115.006264,143.907958 122.75026,142.359958 129.734257,138.82396 C139.430252,133.915962 146.494249,125.775966 149.626247,115.911971 C156.094244,95.5599805 147.190248,73.4399909 127.982258,62.1159962"></path>
  <path class="title-1" fill="#4A4A4A" d="M198.427734,94 L198.427734,68.7929688 L202.171875,68.7929688 L202.171875,94 L198.427734,94 Z M199.640625,66.4199219 L195.826172,66.4199219 L200.923828,60.8125 L206.039062,60.8125 L199.640625,66.4199219 Z M219.59375,74.5234375 C219.441405,74.1601544 219.23047,73.8232437 218.960938,73.5126953 C218.691405,73.2021469 218.363283,72.9326183 217.976562,72.7041016 C217.589842,72.4755848 217.147463,72.2968756 216.649414,72.1679688 C216.151365,72.0390619 215.597659,71.9746094 214.988281,71.9746094 C213.781244,71.9746094 212.837894,72.2382786 212.158203,72.765625 C211.478512,73.2929714 211.138672,74.0371046 211.138672,74.9980469 C211.138672,75.5957061 211.32617,76.102537 211.701172,76.5185547 C212.076174,76.9345724 212.568356,77.3007797 213.177734,77.6171875 C213.787112,77.9335953 214.481441,78.2236315 215.260742,78.4873047 C216.040043,78.7509779 216.83691,79.0380844 217.651367,79.3486328 C218.465824,79.6591812 219.262691,80.0165995 220.041992,80.4208984 C220.821293,80.8251973 221.515622,81.3173799 222.125,81.8974609 C222.734378,82.477542 223.226561,83.1748006 223.601562,83.9892578 C223.976564,84.803715 224.164062,85.7792912 224.164062,86.9160156 C224.164062,88.1230529 223.944338,89.1923782 223.504883,90.1240234 C223.065427,91.0556687 222.458988,91.8408171 221.685547,92.4794922 C220.912106,93.1181673 220.000982,93.6044905 218.952148,93.9384766 C217.903315,94.2724626 216.775397,94.4394531 215.568359,94.4394531 C214.443354,94.4394531 213.391606,94.2958999 212.413086,94.0087891 C211.434565,93.7216783 210.549809,93.3115261 209.758789,92.7783203 C208.967769,92.2451145 208.285159,91.6005897 207.710938,90.8447266 C207.136716,90.0888634 206.691408,89.2421922 206.375,88.3046875 L209.908203,87.0214844 C210.166017,87.5839872 210.48535,88.099607 210.866211,88.5683594 C211.247072,89.0371117 211.683591,89.4384749 212.175781,89.7724609 C212.667971,90.106447 213.209958,90.3671866 213.801758,90.5546875 C214.393558,90.7421884 215.029293,90.8359375 215.708984,90.8359375 C216.388675,90.8359375 217.009763,90.7539071 217.572266,90.5898438 C218.134768,90.4257804 218.615232,90.1796891 219.013672,89.8515625 C219.412111,89.5234359 219.722655,89.1162134 219.945312,88.6298828 C220.16797,88.1435523 220.279297,87.5839875 220.279297,86.9511719 C220.279297,86.2011681 220.091799,85.5712916 219.716797,85.0615234 C219.341795,84.5517553 218.849612,84.1093769 218.240234,83.734375 C217.630856,83.3593731 216.936527,83.0312514 216.157227,82.75 C215.377926,82.4687486 214.581059,82.1816421 213.766602,81.8886719 C212.952144,81.5957017 212.155277,81.2675799 211.375977,80.9042969 C210.596676,80.5410138 209.902347,80.0957058 209.292969,79.5683594 C208.683591,79.041013 208.191408,78.4082068 207.816406,77.6699219 C207.441404,76.9316369 207.253906,76.0293022 207.253906,74.9628906 C207.253906,74.0722612 207.432615,73.2285196 207.790039,72.4316406 C208.147463,71.6347616 208.666012,70.9345733 209.345703,70.3310547 C210.025394,69.727536 210.863276,69.2500018 211.859375,68.8984375 C212.855474,68.5468732 213.992181,68.3710938 215.269531,68.3710938 C216.335943,68.3710938 217.30273,68.4970691 218.169922,68.7490234 C219.037114,69.0009778 219.795895,69.3496071 220.446289,69.7949219 C221.096683,70.2402366 221.63867,70.7675751 222.072266,71.3769531 C222.505862,71.9863312 222.833983,72.6484339 223.056641,73.3632812 L219.59375,74.5234375 Z M228.560547,94 L228.560547,68.7929688 L232.304688,68.7929688 L232.304688,90.3964844 L244.626953,90.3964844 L244.626953,94 L228.560547,94 Z M248.478516,94 L248.478516,68.7929688 L264.105469,68.7929688 L264.105469,72.3261719 L252.222656,72.3261719 L252.222656,79.234375 L259.904297,79.234375 L259.904297,82.7675781 L252.222656,82.7675781 L252.222656,90.4667969 L264.896484,90.4667969 L264.896484,94 L248.478516,94 Z M284.673828,94 L273.775391,76.8964844 L272.755859,75.0332031 L272.861328,76.8964844 L272.861328,94 L269.117188,94 L269.117188,68.7929688 L272.896484,68.7929688 L283.53125,85.6152344 L284.568359,87.5488281 L284.462891,85.6503906 L284.462891,68.7929688 L288.207031,68.7929688 L288.207031,94 L284.673828,94 Z M305.453125,74.5234375 C305.30078,74.1601544 305.089845,73.8232437 304.820312,73.5126953 C304.55078,73.2021469 304.222658,72.9326183 303.835938,72.7041016 C303.449217,72.4755848 303.006838,72.2968756 302.508789,72.1679688 C302.01074,72.0390619 301.457034,71.9746094 300.847656,71.9746094 C299.640619,71.9746094 298.697269,72.2382786 298.017578,72.765625 C297.337887,73.2929714 296.998047,74.0371046 296.998047,74.9980469 C296.998047,75.5957061 297.185545,76.102537 297.560547,76.5185547 C297.935549,76.9345724 298.427731,77.3007797 299.037109,77.6171875 C299.646487,77.9335953 300.340816,78.2236315 301.120117,78.4873047 C301.899418,78.7509779 302.696285,79.0380844 303.510742,79.3486328 C304.325199,79.6591812 305.122066,80.0165995 305.901367,80.4208984 C306.680668,80.8251973 307.374997,81.3173799 307.984375,81.8974609 C308.593753,82.477542 309.085936,83.1748006 309.460938,83.9892578 C309.835939,84.803715 310.023438,85.7792912 310.023438,86.9160156 C310.023438,88.1230529 309.803713,89.1923782 309.364258,90.1240234 C308.924802,91.0556687 308.318363,91.8408171 307.544922,92.4794922 C306.771481,93.1181673 305.860357,93.6044905 304.811523,93.9384766 C303.76269,94.2724626 302.634772,94.4394531 301.427734,94.4394531 C300.302729,94.4394531 299.250981,94.2958999 298.272461,94.0087891 C297.29394,93.7216783 296.409184,93.3115261 295.618164,92.7783203 C294.827144,92.2451145 294.144534,91.6005897 293.570312,90.8447266 C292.996091,90.0888634 292.550783,89.2421922 292.234375,88.3046875 L295.767578,87.0214844 C296.025392,87.5839872 296.344725,88.099607 296.725586,88.5683594 C297.106447,89.0371117 297.542966,89.4384749 298.035156,89.7724609 C298.527346,90.106447 299.069333,90.3671866 299.661133,90.5546875 C300.252933,90.7421884 300.888668,90.8359375 301.568359,90.8359375 C302.24805,90.8359375 302.869138,90.7539071 303.431641,90.5898438 C303.994143,90.4257804 304.474607,90.1796891 304.873047,89.8515625 C305.271486,89.5234359 305.58203,89.1162134 305.804688,88.6298828 C306.027345,88.1435523 306.138672,87.5839875 306.138672,86.9511719 C306.138672,86.2011681 305.951174,85.5712916 305.576172,85.0615234 C305.20117,84.5517553 304.708987,84.1093769 304.099609,83.734375 C303.490231,83.3593731 302.795902,83.0312514 302.016602,82.75 C301.237301,82.4687486 300.440434,82.1816421 299.625977,81.8886719 C298.811519,81.5957017 298.014652,81.2675799 297.235352,80.9042969 C296.456051,80.5410138 295.761722,80.0957058 295.152344,79.5683594 C294.542966,79.041013 294.050783,78.4082068 293.675781,77.6699219 C293.300779,76.9316369 293.113281,76.0293022 293.113281,74.9628906 C293.113281,74.0722612 293.29199,73.2285196 293.649414,72.4316406 C294.006838,71.6347616 294.525387,70.9345733 295.205078,70.3310547 C295.884769,69.727536 296.722651,69.2500018 297.71875,68.8984375 C298.714849,68.5468732 299.851556,68.3710938 301.128906,68.3710938 C302.195318,68.3710938 303.162105,68.4970691 304.029297,68.7490234 C304.896489,69.0009778 305.65527,69.3496071 306.305664,69.7949219 C306.956058,70.2402366 307.498045,70.7675751 307.931641,71.3769531 C308.365237,71.9863312 308.693358,72.6484339 308.916016,73.3632812 L305.453125,74.5234375 Z M329.730469,94 L322.628906,80.8164062 L318.164062,86.2304688 L318.164062,94 L314.419922,94 L314.419922,68.7929688 L318.164062,68.7929688 L318.164062,81.0097656 L327.884766,68.7929688 L332.208984,68.7929688 L325.160156,77.6523438 L334.125,94 L329.730469,94 Z M347.082031,94.4394531 C345.781243,94.4394531 344.553717,94.2695329 343.399414,93.9296875 C342.245111,93.5898421 341.240239,93.0302773 340.384766,92.2509766 C339.529293,91.4716758 338.852542,90.4462954 338.354492,89.1748047 C337.856443,87.903314 337.607422,86.3300875 337.607422,84.4550781 L337.607422,68.7929688 L341.351562,68.7929688 L341.351562,84.4550781 C341.351562,85.7207095 341.498045,86.7636678 341.791016,87.5839844 C342.083986,88.404301 342.485349,89.0546851 342.995117,89.5351562 C343.504885,90.0156274 344.111325,90.3525381 344.814453,90.5458984 C345.517582,90.7392588 346.273433,90.8359375 347.082031,90.8359375 C347.890629,90.8359375 348.643551,90.7392588 349.34082,90.5458984 C350.038089,90.3525381 350.647458,90.0156274 351.168945,89.5351562 C351.690432,89.0546851 352.097655,88.404301 352.390625,87.5839844 C352.683595,86.7636678 352.830078,85.7207095 352.830078,84.4550781 L352.830078,68.7929688 L356.574219,68.7929688 L356.574219,84.4550781 C356.574219,86.3066499 356.333987,87.8681577 355.853516,89.1396484 C355.373044,90.4111392 354.708012,91.4394492 353.858398,92.2246094 C353.008785,93.0097696 352.003912,93.5751936 350.84375,93.9208984 C349.683588,94.2666033 348.429694,94.4394531 347.082031,94.4394531 L347.082031,94.4394531 Z"></path>
  <path class="title-2" fill="#4A4A4A" d="M208.816406,140 L205.072266,140 L196.441406,114.792969 L200.466797,114.792969 L206.197266,132.371094 C206.302735,132.710939 206.42871,133.12988 206.575195,133.62793 C206.72168,134.125979 206.859374,134.667966 206.988281,135.253906 C207.117188,134.667966 207.254882,134.125979 207.401367,133.62793 C207.547852,133.12988 207.673828,132.710939 207.779297,132.371094 L213.439453,114.792969 L217.429688,114.792969 L208.816406,140 Z M221.105469,140 L221.105469,114.792969 L236.732422,114.792969 L236.732422,118.326172 L224.849609,118.326172 L224.849609,125.234375 L232.53125,125.234375 L232.53125,128.767578 L224.849609,128.767578 L224.849609,136.466797 L237.523438,136.466797 L237.523438,140 L221.105469,140 Z M241.744141,140 L241.744141,114.792969 L257.371094,114.792969 L257.371094,118.326172 L245.488281,118.326172 L245.488281,125.234375 L253.169922,125.234375 L253.169922,128.767578 L245.488281,128.767578 L245.488281,140 L241.744141,140 Z M271.453125,140 L267.708984,140 L259.078125,114.792969 L263.103516,114.792969 L268.833984,132.371094 C268.939454,132.710939 269.065429,133.12988 269.211914,133.62793 C269.358399,134.125979 269.496093,134.667966 269.625,135.253906 C269.753907,134.667966 269.891601,134.125979 270.038086,133.62793 C270.184571,133.12988 270.310546,132.710939 270.416016,132.371094 L276.076172,114.792969 L280.066406,114.792969 L271.453125,140 Z M283.742188,140 L283.742188,114.792969 L299.369141,114.792969 L299.369141,118.326172 L287.486328,118.326172 L287.486328,125.234375 L295.167969,125.234375 L295.167969,128.767578 L287.486328,128.767578 L287.486328,136.466797 L300.160156,136.466797 L300.160156,140 L283.742188,140 Z M304.380859,140 L304.380859,114.792969 L314.998047,114.792969 C316.54493,114.792969 317.839839,115.003904 318.882812,115.425781 C319.925786,115.847658 320.763669,116.407223 321.396484,117.104492 C322.0293,117.801761 322.477538,118.595699 322.741211,119.486328 C323.004884,120.376958 323.136719,121.29687 323.136719,122.246094 C323.136719,122.97266 323.031251,123.705074 322.820312,124.443359 C322.609374,125.181644 322.284182,125.875973 321.844727,126.526367 C321.405271,127.176761 320.839847,127.750974 320.148438,128.249023 C319.457028,128.747073 318.630864,129.124999 317.669922,129.382812 L322.855469,140 L318.566406,140 L313.609375,129.699219 L308.125,129.699219 L308.125,140 L304.380859,140 Z M315.085938,126.095703 C315.871098,126.095703 316.527341,125.987306 317.054688,125.770508 C317.582034,125.55371 318.009764,125.263674 318.337891,124.900391 C318.666017,124.537108 318.90039,124.126955 319.041016,123.669922 C319.181641,123.212888 319.251953,122.738284 319.251953,122.246094 C319.251953,121.812498 319.19043,121.36719 319.067383,120.910156 C318.944335,120.453123 318.724611,120.037111 318.408203,119.662109 C318.091795,119.287107 317.664065,118.982423 317.125,118.748047 C316.585935,118.513671 315.906254,118.396484 315.085938,118.396484 L308.125,118.396484 L308.125,126.095703 L315.085938,126.095703 Z M327.708984,129.136719 L325.371094,129.136719 L325.371094,125.673828 L327.708984,125.673828 L327.708984,114.792969 L334.775391,114.792969 C336.240242,114.792969 337.552729,114.959959 338.712891,115.293945 C339.873053,115.627931 340.898433,116.087888 341.789062,116.673828 C342.679692,117.259769 343.441403,117.954098 344.074219,118.756836 C344.707034,119.559574 345.225584,120.426753 345.629883,121.358398 C346.034182,122.290044 346.330077,123.271479 346.517578,124.302734 C346.705079,125.33399 346.798828,126.365229 346.798828,127.396484 C346.798828,128.357427 346.713868,129.338862 346.543945,130.34082 C346.374023,131.342778 346.092775,132.309566 345.700195,133.241211 C345.307615,134.172856 344.800784,135.048824 344.179688,135.869141 C343.558591,136.689457 342.79688,137.407223 341.894531,138.022461 C340.992183,138.637698 339.940436,139.121092 338.739258,139.472656 C337.53808,139.824221 336.16993,140 334.634766,140 L327.708984,140 L327.708984,129.136719 Z M335.232422,136.466797 C336.193364,136.466797 337.051754,136.340822 337.807617,136.088867 C338.56348,135.836913 339.225583,135.494143 339.793945,135.060547 C340.362308,134.626951 340.842771,134.11719 341.235352,133.53125 C341.627932,132.94531 341.950194,132.315433 342.202148,131.641602 C342.454103,130.96777 342.635742,130.270511 342.74707,129.549805 C342.858399,128.829098 342.914062,128.111332 342.914062,127.396484 C342.914062,126.25976 342.776369,125.149419 342.500977,124.06543 C342.225585,122.98144 341.794925,122.014653 341.208984,121.165039 C340.623044,120.315425 339.870122,119.629885 338.950195,119.108398 C338.030269,118.586911 336.925788,118.326172 335.636719,118.326172 L331.453125,118.326172 L331.453125,125.673828 L336.902344,125.673828 L336.902344,129.136719 L331.453125,129.136719 L331.453125,136.466797 L335.232422,136.466797 Z M351.371094,140 L351.371094,114.792969 L355.115234,114.792969 L355.115234,136.396484 L367.4375,136.396484 L367.4375,140 L351.371094,140 Z M387.707031,140 L385.703125,134.199219 L375.507812,134.199219 L373.451172,140 L369.566406,140 L378.671875,114.792969 L382.521484,114.792969 L391.591797,140 L387.707031,140 Z M381.484375,122.316406 C381.343749,121.917967 381.188477,121.455081 381.018555,120.927734 C380.848632,120.400388 380.716797,119.919924 380.623047,119.486328 C380.505859,119.919924 380.368165,120.397458 380.209961,120.918945 C380.051757,121.440432 379.902344,121.906248 379.761719,122.316406 L376.650391,130.894531 L384.542969,130.894531 L381.484375,122.316406 Z M404.636719,140.439453 C403.335931,140.439453 402.108404,140.269533 400.954102,139.929688 C399.799799,139.589842 398.794926,139.030277 397.939453,138.250977 C397.08398,137.471676 396.407229,136.446295 395.90918,135.174805 C395.41113,133.903314 395.162109,132.330087 395.162109,130.455078 L395.162109,114.792969 L398.90625,114.792969 L398.90625,130.455078 C398.90625,131.720709 399.052733,132.763668 399.345703,133.583984 C399.638673,134.404301 400.040037,135.054685 400.549805,135.535156 C401.059573,136.015627 401.666012,136.352538 402.369141,136.545898 C403.072269,136.739259 403.828121,136.835938 404.636719,136.835938 C405.445317,136.835938 406.198239,136.739259 406.895508,136.545898 C407.592777,136.352538 408.202146,136.015627 408.723633,135.535156 C409.24512,135.054685 409.652342,134.404301 409.945312,133.583984 C410.238283,132.763668 410.384766,131.720709 410.384766,130.455078 L410.384766,114.792969 L414.128906,114.792969 L414.128906,130.455078 C414.128906,132.30665 413.888674,133.868158 413.408203,135.139648 C412.927732,136.411139 412.2627,137.439449 411.413086,138.224609 C410.563472,139.00977 409.5586,139.575194 408.398438,139.920898 C407.238275,140.266603 405.984382,140.439453 404.636719,140.439453 L404.636719,140.439453 Z M434.978516,140 L424.080078,122.896484 L423.060547,121.033203 L423.166016,122.896484 L423.166016,140 L419.421875,140 L419.421875,114.792969 L423.201172,114.792969 L433.835938,131.615234 L434.873047,133.548828 L434.767578,131.650391 L434.767578,114.792969 L438.511719,114.792969 L438.511719,140 L434.978516,140 Z M444.173828,140 L444.173828,114.792969 L447.917969,114.792969 L447.917969,140 L444.173828,140 Z M469.119141,140 L458.220703,122.896484 L457.201172,121.033203 L457.306641,122.896484 L457.306641,140 L453.5625,140 L453.5625,114.792969 L457.341797,114.792969 L467.976562,131.615234 L469.013672,133.548828 L468.908203,131.650391 L468.908203,114.792969 L472.652344,114.792969 L472.652344,140 L469.119141,140 Z"></path>
</svg>
