<svg class="svg-type-conf" viewBox="0 0 500 210" version="1.1" xmlns="http://www.w3.org/2000/svg" xmlns:xlink="http://www.w3.org/1999/xlink">
  <path class="hexagon" fill="#A63F5B" d="M179.892585,144.067416 C179.895061,149.589538 176.016645,156.306466 171.234808,159.067261 L103.706218,198.054911 C98.9221837,200.816974 91.1755007,200.820301 86.3870822,198.052844 L18.8037657,158.993191 C14.0227053,156.229986 10.1448871,149.5219 10.1424077,143.991279 L10.1074146,65.9325838 C10.104939,60.4104615 13.9833548,53.6935339 18.7651921,50.9327389 L86.2937823,11.9450891 C91.0778163,9.1830258 98.8244993,9.17969869 103.612918,11.9471563 L171.196234,51.0068089 C175.977295,53.7700139 179.855113,60.4781001 179.857592,66.008721 L179.892585,144.067416 Z"></path>
  <path class="logo-graphic" fill="#EBEBEA" d="M66.8761129,116.383667 C66.8761129,106.071035 76.1825271,96.4570433 81.6222536,88.4512422 C87.1762232,80.2718796 89.0260817,72.3935035 87.670544,62.4763285 C106.481101,73.0174463 117.279265,90.8283763 112.351436,112.066598 C115.163572,108.375669 118.043815,104.774816 117.925178,99.9370622 C128.723343,115.24563 120.699966,136.40476 106.404206,147.176561 C114.790085,136.138925 111.617644,123.075673 98.9784084,117.96769 C100.599781,120.8721 102.990097,127.847517 97.7744625,128.425323 C87.2838753,129.585329 98.7521193,114.661233 100.439401,112.453266 C108.651719,101.699041 107.436788,88.4007116 94.2043674,82.5062099 C99.751746,94.7038519 92.7279957,100.420398 85.5592447,109.75757 C76.8745763,121.067631 71.294243,137.246204 84.2937833,148.233309 C72.4476583,142.723279 66.8761129,128.818583 66.8761129,116.383667 M91.2318512,147.42482 C80.2381552,143.685557 78.8035262,129.400783 83.373248,120.443689 C87.8726663,111.625004 100.050535,104.207994 100.797509,93.8909687 C106.349282,104.884665 92.9938305,111.119699 89.9883596,120.098763 C86.1700056,131.503294 102.001455,138.076663 104.890486,126.977512 C113.078637,136.411351 101.819106,149.729454 91.2318512,147.42482 M120.157311,95.8199186 C116.677292,92.1970959 116.136835,86.8650215 113.695988,82.5545435 C110.165439,76.3173127 105.261776,70.6117514 99.8528071,65.9387715 C94.3911108,61.221852 88.4592604,58.1175169 82.055059,55 C83.0898373,60.6726066 84.3113591,66.3144554 83.8104473,72.1276688 C82.771275,84.1495522 72.3312183,92.6299013 66.8870979,102.852457 C58.1826567,119.200197 64.5561003,142.732067 81.4201313,151.491433 C91.9480672,156.957523 103.187825,156.258883 112.147116,147.767549 C127.187653,133.513532 132.557076,112.727889 120.157311,95.8199186"></path>
  <path class="title-1" fill="#4A4A4A" d="M198.427734,91 L198.427734,65.7929688 L202.171875,65.7929688 L202.171875,91 L198.427734,91 Z M217.396484,91.4394531 C216.095697,91.4394531 214.932622,91.260744 213.907227,90.9033203 C212.881831,90.5458967 211.982426,90.0595734 211.208984,89.4443359 C210.435543,88.8290985 209.77637,88.1025433 209.231445,87.2646484 C208.686521,86.4267536 208.244142,85.5244189 207.904297,84.5576172 C207.564451,83.5908155 207.31543,82.5830131 207.157227,81.5341797 C206.999023,80.4853463 206.919922,79.4394583 206.919922,78.3964844 C206.919922,77.4355421 206.999023,76.4453176 207.157227,75.4257812 C207.31543,74.4062449 207.567381,73.4130908 207.913086,72.4462891 C208.258791,71.4794874 208.707028,70.5683637 209.257812,69.7128906 C209.808597,68.8574176 210.470699,68.1074251 211.244141,67.4628906 C212.017582,66.8183562 212.914057,66.3085956 213.933594,65.9335938 C214.95313,65.5585919 216.107415,65.3710938 217.396484,65.3710938 C218.580084,65.3710938 219.64648,65.514647 220.595703,65.8017578 C221.544927,66.0888686 222.37402,66.4667945 223.083008,66.9355469 C223.791996,67.4042992 224.386716,67.937497 224.867188,68.5351562 C225.347659,69.1328155 225.716796,69.7421844 225.974609,70.3632812 L222.546875,71.9628906 C222.242186,71.4824195 221.922853,71.057619 221.588867,70.6884766 C221.254881,70.3193341 220.885744,70.0058607 220.481445,69.7480469 C220.077146,69.4902331 219.623049,69.2968756 219.119141,69.1679688 C218.615232,69.0390619 218.041019,68.9746094 217.396484,68.9746094 C216.55273,68.9746094 215.805667,69.1093737 215.155273,69.3789062 C214.50488,69.6484388 213.936526,70.0175758 213.450195,70.4863281 C212.963865,70.9550805 212.550783,71.4999969 212.210938,72.1210938 C211.871092,72.7421906 211.598634,73.4013637 211.393555,74.0986328 C211.188476,74.7959019 211.039063,75.5136682 210.945312,76.2519531 C210.851562,76.9902381 210.804688,77.7050747 210.804688,78.3964844 C210.804688,79.5097712 210.930663,80.6289006 211.182617,81.7539062 C211.434572,82.8789119 211.830075,83.8925736 212.369141,84.7949219 C212.908206,85.6972701 213.593746,86.4296847 214.425781,86.9921875 C215.257817,87.5546903 216.248041,87.8359375 217.396484,87.8359375 C218.017581,87.8359375 218.577146,87.7568367 219.075195,87.5986328 C219.573245,87.4404289 220.030271,87.2177749 220.446289,86.9306641 C220.862307,86.6435533 221.237303,86.3007832 221.571289,85.9023438 C221.905275,85.5039043 222.218749,85.0644555 222.511719,84.5839844 L226.009766,85.9199219 C225.658201,86.7402385 225.221682,87.490231 224.700195,88.1699219 C224.178708,88.8496128 223.56348,89.4296851 222.854492,89.9101562 C222.145504,90.3906274 221.336919,90.7656237 220.428711,91.0351562 C219.520503,91.3046888 218.509771,91.4394531 217.396484,91.4394531 L217.396484,91.4394531 Z M230.212891,91 L230.212891,65.7929688 L245.839844,65.7929688 L245.839844,69.3261719 L233.957031,69.3261719 L233.957031,76.234375 L241.638672,76.234375 L241.638672,79.7675781 L233.957031,79.7675781 L233.957031,87.4667969 L246.630859,87.4667969 L246.630859,91 L230.212891,91 Z M276.673828,65.7929688 L271.224609,91 L267.849609,91 L263.490234,74.6523438 C263.314452,73.9843717 263.176758,73.4423849 263.077148,73.0263672 C262.977539,72.6103495 262.910156,72.2441422 262.875,71.9277344 C262.839844,72.2441422 262.775391,72.6103495 262.681641,73.0263672 C262.58789,73.4423849 262.453126,73.9843717 262.277344,74.6523438 L258.023438,91 L254.630859,91 L249.234375,65.7929688 L253.083984,65.7929688 L256.212891,81.3144531 C256.365235,82.0410193 256.485351,82.6269509 256.573242,83.0722656 C256.661133,83.5175804 256.722656,83.9042952 256.757812,84.2324219 C256.792969,83.9042952 256.86621,83.52051 256.977539,83.0810547 C257.088868,82.6415994 257.232421,82.0527381 257.408203,81.3144531 L261.363281,65.7929688 L264.509766,65.7929688 L268.570312,81.2792969 C268.769532,82.005863 268.918945,82.5859353 269.018555,83.0195312 C269.118165,83.4531272 269.185547,83.8339827 269.220703,84.1621094 C269.25586,83.8339827 269.311523,83.4472679 269.387695,83.0019531 C269.463868,82.5566384 269.572265,81.9824254 269.712891,81.2792969 L272.894531,65.7929688 L276.673828,65.7929688 Z M280.525391,91 L280.525391,65.7929688 L296.152344,65.7929688 L296.152344,69.3261719 L284.269531,69.3261719 L284.269531,76.234375 L291.951172,76.234375 L291.951172,79.7675781 L284.269531,79.7675781 L284.269531,87.4667969 L296.943359,87.4667969 L296.943359,91 L280.525391,91 Z M301.164062,65.7929688 L310.708984,65.7929688 C312.208992,65.7929688 313.468745,65.9833965 314.488281,66.3642578 C315.507818,66.7451191 316.328122,67.2490203 316.949219,67.8759766 C317.570316,68.5029328 318.012694,69.2206991 318.276367,70.0292969 C318.54004,70.8378947 318.671875,71.6699176 318.671875,72.5253906 C318.671875,73.5800834 318.384768,74.5732375 317.810547,75.5048828 C317.236325,76.4365281 316.369146,77.1835909 315.208984,77.7460938 C315.994145,78.0273452 316.662107,78.3818338 317.212891,78.8095703 C317.763675,79.2373068 318.214842,79.7089818 318.566406,80.2246094 C318.917971,80.740237 319.172851,81.288083 319.331055,81.8681641 C319.489259,82.4482451 319.568359,83.0312471 319.568359,83.6171875 C319.568359,84.4726605 319.424806,85.3398394 319.137695,86.21875 C318.850585,87.0976606 318.37891,87.891598 317.722656,88.6005859 C317.066403,89.3095739 316.208013,89.8867165 315.147461,90.3320312 C314.086909,90.777346 312.78907,91 311.253906,91 L301.164062,91 L301.164062,65.7929688 Z M311.535156,87.5371094 C312.367192,87.5371094 313.055661,87.4257824 313.600586,87.203125 C314.145511,86.9804676 314.57617,86.6904315 314.892578,86.3330078 C315.208986,85.9755842 315.43164,85.574221 315.560547,85.1289062 C315.689454,84.6835915 315.753906,84.2382835 315.753906,83.7929688 C315.753906,83.2656224 315.677735,82.7529322 315.525391,82.2548828 C315.373046,81.7568334 315.097658,81.3173847 314.699219,80.9365234 C314.300779,80.5556622 313.758792,80.248048 313.073242,80.0136719 C312.387692,79.7792957 311.517583,79.6621094 310.462891,79.6621094 L304.908203,79.6621094 L304.908203,87.5371094 L311.535156,87.5371094 Z M310.09375,76.1992188 C310.87891,76.1992188 311.57031,76.1142587 312.167969,75.9443359 C312.765628,75.7744132 313.26367,75.5341812 313.662109,75.2236328 C314.060549,74.9130844 314.359374,74.5468771 314.558594,74.125 C314.757813,73.7031229 314.857422,73.2343776 314.857422,72.71875 C314.857422,72.3085917 314.804688,71.8984396 314.699219,71.4882812 C314.593749,71.0781229 314.391603,70.7060564 314.092773,70.3720703 C313.793944,70.0380843 313.383792,69.7685557 312.862305,69.5634766 C312.340818,69.3583974 311.658207,69.2558594 310.814453,69.2558594 L304.908203,69.2558594 L304.908203,76.1992188 L310.09375,76.1992188 Z"></path>
  <!-- <path class="title-2016" fill="#A63F5B" d="M397.941406,91.4394531 C396.42968,91.4394531 395.102545,91.1904322 393.959961,90.6923828 C392.817377,90.1943334 391.859379,89.5117231 391.085938,88.6445312 C390.312496,87.7773394 389.732424,86.7490294 389.345703,85.5595703 C388.958982,84.3701112 388.765625,83.0898506 388.765625,81.71875 C388.765625,79.6796773 389.046872,77.7578215 389.609375,75.953125 C390.171878,74.1484285 391.050775,72.5312571 392.246094,71.1015625 C393.441412,69.6718679 394.970694,68.461919 396.833984,67.4716797 C398.697275,66.4814404 400.929674,65.7812521 403.53125,65.3710938 L403.53125,69.9765625 C402.605464,70.1171882 401.685551,70.3398422 400.771484,70.6445312 C399.857417,70.9492203 399.001957,71.3564428 398.205078,71.8662109 C397.408199,72.3759791 396.693363,72.994137 396.060547,73.7207031 C395.427731,74.4472693 394.929689,75.2968701 394.566406,76.2695312 C395.011721,75.9296858 395.585934,75.63672 396.289062,75.390625 C396.992191,75.14453 397.794917,75.0214844 398.697266,75.0214844 C399.892584,75.0214844 400.997065,75.2207011 402.010742,75.6191406 C403.024419,76.0175801 403.894528,76.5800745 404.621094,77.3066406 C405.34766,78.0332068 405.916014,78.9003856 406.326172,79.9082031 C406.73633,80.9160207 406.941406,82.0351501 406.941406,83.265625 C406.941406,84.4843811 406.721682,85.5947216 406.282227,86.5966797 C405.842771,87.5986378 405.224613,88.4570277 404.427734,89.171875 C403.630855,89.8867223 402.681646,90.4433574 401.580078,90.8417969 C400.47851,91.2402364 399.265632,91.4394531 397.941406,91.4394531 Z M397.941406,86.8164062 C398.539065,86.8164062 399.089841,86.7373055 399.59375,86.5791016 C400.097659,86.4208976 400.534178,86.1894546 400.90332,85.8847656 C401.272463,85.5800766 401.562499,85.20801 401.773438,84.7685547 C401.984376,84.3290994 402.089844,83.8281278 402.089844,83.265625 C402.089844,82.6914034 401.984376,82.1787132 401.773438,81.7275391 C401.562499,81.2763649 401.272463,80.8955094 400.90332,80.5849609 C400.534178,80.2744125 400.097659,80.0371102 399.59375,79.8730469 C399.089841,79.7089836 398.539065,79.6269531 397.941406,79.6269531 C397.343747,79.6269531 396.790042,79.7089836 396.280273,79.8730469 C395.770505,80.0371102 395.331057,80.2773422 394.961914,80.59375 C394.592772,80.9101578 394.302735,81.2939431 394.091797,81.7451172 C393.880858,82.1962913 393.775391,82.7031222 393.775391,83.265625 C393.775391,83.8281278 393.880858,84.3290994 394.091797,84.7685547 C394.302735,85.20801 394.592772,85.5800766 394.961914,85.8847656 C395.331057,86.1894546 395.770505,86.4208976 396.280273,86.5791016 C396.790042,86.7373055 397.343747,86.8164062 397.941406,86.8164062 Z M377.53125,91 L377.53125,72.3496094 L373.681641,72.3496094 L373.681641,68.5 C374.2793,68.5 374.833005,68.4560551 375.342773,68.3681641 C375.852542,68.280273 376.315428,68.1308604 376.731445,67.9199219 C377.147463,67.7089833 377.504881,67.4306658 377.803711,67.0849609 C378.102541,66.7392561 378.333984,66.3085963 378.498047,65.7929688 L382.382812,65.7929688 L382.382812,91 L377.53125,91 Z M361.427734,91.4394531 C360.220697,91.4394531 359.154302,91.260744 358.228516,90.9033203 C357.30273,90.5458967 356.494144,90.0566437 355.802734,89.4355469 C355.111325,88.81445 354.534182,88.0820355 354.071289,87.2382812 C353.608396,86.394527 353.2334,85.4892626 352.946289,84.5224609 C352.659178,83.5556592 352.454102,82.5507865 352.331055,81.5078125 C352.208007,80.4648385 352.146484,79.4277395 352.146484,78.3964844 C352.146484,77.3652292 352.208007,76.3252006 352.331055,75.2763672 C352.454102,74.2275338 352.659178,73.2197314 352.946289,72.2529297 C353.2334,71.286128 353.608396,70.3837933 354.071289,69.5458984 C354.534182,68.7080036 355.111325,67.9814484 355.802734,67.3662109 C356.494144,66.7509735 357.30273,66.2646502 358.228516,65.9072266 C359.154302,65.5498029 360.220697,65.3710938 361.427734,65.3710938 C362.634772,65.3710938 363.701167,65.5468732 364.626953,65.8984375 C365.552739,66.2500018 366.361325,66.736325 367.052734,67.3574219 C367.744144,67.9785187 368.321287,68.705074 368.78418,69.5371094 C369.247073,70.3691448 369.622069,71.2685499 369.90918,72.2353516 C370.19629,73.2021533 370.401367,74.2099557 370.524414,75.2587891 C370.647462,76.3076224 370.708984,77.3535104 370.708984,78.3964844 C370.708984,79.4277395 370.647462,80.4648385 370.524414,81.5078125 C370.401367,82.5507865 370.19629,83.5556592 369.90918,84.5224609 C369.622069,85.4892626 369.247073,86.394527 368.78418,87.2382812 C368.321287,88.0820355 367.744144,88.81445 367.052734,89.4355469 C366.361325,90.0566437 365.552739,90.5458967 364.626953,90.9033203 C363.701167,91.260744 362.634772,91.4394531 361.427734,91.4394531 Z M361.427734,86.8164062 C362.283207,86.8164062 362.995114,86.5761743 363.563477,86.0957031 C364.131839,85.615232 364.585936,84.9794961 364.925781,84.1884766 C365.265627,83.397457 365.505859,82.4980519 365.646484,81.4902344 C365.78711,80.4824168 365.857422,79.4511771 365.857422,78.3964844 C365.857422,77.3417916 365.78711,76.3105519 365.646484,75.3027344 C365.505859,74.2949168 365.265627,73.3955118 364.925781,72.6044922 C364.585936,71.8134726 364.131839,71.1777368 363.563477,70.6972656 C362.995114,70.2167945 362.283207,69.9765625 361.427734,69.9765625 C360.572261,69.9765625 359.860354,70.2167945 359.291992,70.6972656 C358.72363,71.1777368 358.269533,71.8134726 357.929688,72.6044922 C357.589842,73.3955118 357.34961,74.2949168 357.208984,75.3027344 C357.068359,76.3105519 356.998047,77.3417916 356.998047,78.3964844 C356.998047,79.4511771 357.068359,80.4824168 357.208984,81.4902344 C357.34961,82.4980519 357.589842,83.397457 357.929688,84.1884766 C358.269533,84.9794961 358.72363,85.615232 359.291992,86.0957031 C359.860354,86.5761743 360.572261,86.8164062 361.427734,86.8164062 Z M330.523438,91 C330.523438,89.1367094 330.75488,87.4814525 331.217773,86.0341797 C331.680666,84.5869068 332.310543,83.3066462 333.107422,82.1933594 C333.904301,81.0800726 334.835932,80.1044964 335.902344,79.2666016 C336.968755,78.4287067 338.105463,77.6816439 339.3125,77.0253906 C339.769534,76.7792956 340.214842,76.5214857 340.648438,76.2519531 C341.082033,75.9824205 341.465819,75.6835954 341.799805,75.3554688 C342.133791,75.0273421 342.403319,74.6640645 342.608398,74.265625 C342.813478,73.8671855 342.916016,73.4218775 342.916016,72.9296875 C342.916016,72.0039016 342.61719,71.280276 342.019531,70.7587891 C341.421872,70.2373021 340.625005,69.9765625 339.628906,69.9765625 C338.574213,69.9765625 337.689457,70.2285131 336.974609,70.7324219 C336.259762,71.2363306 335.691408,71.9335893 335.269531,72.8242188 L330.927734,70.8378906 C331.291017,69.9941364 331.765622,69.2353549 332.351562,68.5615234 C332.937503,67.8876919 333.599606,67.3134789 334.337891,66.8388672 C335.076176,66.3642554 335.884761,66.0009778 336.763672,65.7490234 C337.642583,65.4970691 338.562495,65.3710938 339.523438,65.3710938 C340.824225,65.3710938 341.98437,65.5644512 343.003906,65.9511719 C344.023443,66.3378926 344.884762,66.865231 345.587891,67.5332031 C346.291019,68.2011752 346.830076,68.9892533 347.205078,69.8974609 C347.58008,70.8056686 347.767578,71.7812448 347.767578,72.8242188 C347.767578,73.972662 347.609377,74.9628865 347.292969,75.7949219 C346.976561,76.6269573 346.537112,77.3593718 345.974609,77.9921875 C345.412107,78.6250032 344.738285,79.1962865 343.953125,79.7060547 C343.167965,80.2158229 342.306645,80.728513 341.369141,81.2441406 C340.056634,81.9707068 338.966801,82.7412069 338.099609,83.5556641 C337.232418,84.3701213 336.628908,85.2929636 336.289062,86.3242188 L347.978516,86.3242188 L347.978516,91 L330.523438,91 Z"></path> -->
  <path class="title-2017" fill="#A63F5B" d="M330.523438,91 C330.523438,89.1367094 330.75488,87.4814525 331.217773,86.0341797 C331.680666,84.5869068 332.310543,83.3066462 333.107422,82.1933594 C333.904301,81.0800726 334.835932,80.1044964 335.902344,79.2666016 C336.968755,78.4287067 338.105463,77.6816439 339.3125,77.0253906 C339.769534,76.7792956 340.214842,76.5214857 340.648438,76.2519531 C341.082033,75.9824205 341.465819,75.6835954 341.799805,75.3554688 C342.133791,75.0273421 342.403319,74.6640645 342.608398,74.265625 C342.813478,73.8671855 342.916016,73.4218775 342.916016,72.9296875 C342.916016,72.0039016 342.61719,71.280276 342.019531,70.7587891 C341.421872,70.2373021 340.625005,69.9765625 339.628906,69.9765625 C338.574213,69.9765625 337.689457,70.2285131 336.974609,70.7324219 C336.259762,71.2363306 335.691408,71.9335893 335.269531,72.8242188 L330.927734,70.8378906 C331.291017,69.9941364 331.765622,69.2353549 332.351562,68.5615234 C332.937503,67.8876919 333.599606,67.3134789 334.337891,66.8388672 C335.076176,66.3642554 335.884761,66.0009778 336.763672,65.7490234 C337.642583,65.4970691 338.562495,65.3710938 339.523438,65.3710938 C340.824225,65.3710938 341.98437,65.5644512 343.003906,65.9511719 C344.023443,66.3378926 344.884762,66.865231 345.587891,67.5332031 C346.291019,68.2011752 346.830076,68.9892533 347.205078,69.8974609 C347.58008,70.8056686 347.767578,71.7812448 347.767578,72.8242188 C347.767578,73.972662 347.609377,74.9628865 347.292969,75.7949219 C346.976561,76.6269573 346.537112,77.3593718 345.974609,77.9921875 C345.412107,78.6250032 344.738285,79.1962865 343.953125,79.7060547 C343.167965,80.2158229 342.306645,80.728513 341.369141,81.2441406 C340.056634,81.9707068 338.966801,82.7412069 338.099609,83.5556641 C337.232418,84.3701213 336.628908,85.2929636 336.289062,86.3242188 L347.978516,86.3242188 L347.978516,91 L330.523438,91 Z M361.427734,91.4394531 C360.220697,91.4394531 359.154302,91.260744 358.228516,90.9033203 C357.30273,90.5458967 356.494144,90.0566437 355.802734,89.4355469 C355.111325,88.81445 354.534182,88.0820355 354.071289,87.2382812 C353.608396,86.394527 353.2334,85.4892626 352.946289,84.5224609 C352.659178,83.5556592 352.454102,82.5507865 352.331055,81.5078125 C352.208007,80.4648385 352.146484,79.4277395 352.146484,78.3964844 C352.146484,77.3652292 352.208007,76.3252006 352.331055,75.2763672 C352.454102,74.2275338 352.659178,73.2197314 352.946289,72.2529297 C353.2334,71.286128 353.608396,70.3837933 354.071289,69.5458984 C354.534182,68.7080036 355.111325,67.9814484 355.802734,67.3662109 C356.494144,66.7509735 357.30273,66.2646502 358.228516,65.9072266 C359.154302,65.5498029 360.220697,65.3710938 361.427734,65.3710938 C362.634772,65.3710938 363.701167,65.5468732 364.626953,65.8984375 C365.552739,66.2500018 366.361325,66.736325 367.052734,67.3574219 C367.744144,67.9785187 368.321287,68.705074 368.78418,69.5371094 C369.247073,70.3691448 369.622069,71.2685499 369.90918,72.2353516 C370.19629,73.2021533 370.401367,74.2099557 370.524414,75.2587891 C370.647462,76.3076224 370.708984,77.3535104 370.708984,78.3964844 C370.708984,79.4277395 370.647462,80.4648385 370.524414,81.5078125 C370.401367,82.5507865 370.19629,83.5556592 369.90918,84.5224609 C369.622069,85.4892626 369.247073,86.394527 368.78418,87.2382812 C368.321287,88.0820355 367.744144,88.81445 367.052734,89.4355469 C366.361325,90.0566437 365.552739,90.5458967 364.626953,90.9033203 C363.701167,91.260744 362.634772,91.4394531 361.427734,91.4394531 L361.427734,91.4394531 Z M361.427734,86.8164062 C362.283207,86.8164062 362.995114,86.5761743 363.563477,86.0957031 C364.131839,85.615232 364.585936,84.9794961 364.925781,84.1884766 C365.265627,83.397457 365.505859,82.4980519 365.646484,81.4902344 C365.78711,80.4824168 365.857422,79.4511771 365.857422,78.3964844 C365.857422,77.3417916 365.78711,76.3105519 365.646484,75.3027344 C365.505859,74.2949168 365.265627,73.3955118 364.925781,72.6044922 C364.585936,71.8134726 364.131839,71.1777368 363.563477,70.6972656 C362.995114,70.2167945 362.283207,69.9765625 361.427734,69.9765625 C360.572261,69.9765625 359.860354,70.2167945 359.291992,70.6972656 C358.72363,71.1777368 358.269533,71.8134726 357.929688,72.6044922 C357.589842,73.3955118 357.34961,74.2949168 357.208984,75.3027344 C357.068359,76.3105519 356.998047,77.3417916 356.998047,78.3964844 C356.998047,79.4511771 357.068359,80.4824168 357.208984,81.4902344 C357.34961,82.4980519 357.589842,83.397457 357.929688,84.1884766 C358.269533,84.9794961 358.72363,85.615232 359.291992,86.0957031 C359.860354,86.5761743 360.572261,86.8164062 361.427734,86.8164062 L361.427734,86.8164062 Z M377.53125,91 L377.53125,72.3496094 L373.681641,72.3496094 L373.681641,68.5 C374.2793,68.5 374.833005,68.4560551 375.342773,68.3681641 C375.852542,68.280273 376.315428,68.1308604 376.731445,67.9199219 C377.147463,67.7089833 377.504881,67.4306658 377.803711,67.0849609 C378.102541,66.7392561 378.333984,66.3085963 378.498047,65.7929688 L382.382812,65.7929688 L382.382812,91 L377.53125,91 Z M392.544922,91 C392.556641,88.9492085 392.700194,87.0097748 392.975586,85.1816406 C393.250978,83.3535065 393.6582,81.6015709 394.197266,79.9257812 C394.736331,78.2499916 395.410152,76.6328203 396.21875,75.0742188 C397.027348,73.5156172 397.976557,71.9863356 399.066406,70.4863281 L387.324219,70.4863281 L387.324219,65.7929688 L404.673828,65.7929688 L404.673828,70.0820312 C403.794917,71.0898488 403.006839,72.1826113 402.30957,73.3603516 C401.612301,74.5380918 400.997073,75.7509703 400.463867,76.9990234 C399.930661,78.2470766 399.470705,79.5097592 399.083984,80.7871094 C398.697264,82.0644595 398.38379,83.3095642 398.143555,84.5224609 C397.903319,85.7353576 397.72168,86.8925726 397.598633,87.9941406 C397.475585,89.0957086 397.414062,90.0976517 397.414062,91 L392.544922,91 Z"></path>
  <path class="title-2" fill="#4A4A4A" d="M207.814453,140.439453 C206.513665,140.439453 205.350591,140.260744 204.325195,139.90332 C203.2998,139.545897 202.400394,139.059573 201.626953,138.444336 C200.853512,137.829098 200.194339,137.102543 199.649414,136.264648 C199.104489,135.426754 198.662111,134.524419 198.322266,133.557617 C197.98242,132.590815 197.733399,131.583013 197.575195,130.53418 C197.416991,129.485346 197.337891,128.439458 197.337891,127.396484 C197.337891,126.435542 197.416991,125.445318 197.575195,124.425781 C197.733399,123.406245 197.98535,122.413091 198.331055,121.446289 C198.67676,120.479487 199.124997,119.568364 199.675781,118.712891 C200.226565,117.857418 200.888668,117.107425 201.662109,116.462891 C202.435551,115.818356 203.332026,115.308596 204.351562,114.933594 C205.371099,114.558592 206.525384,114.371094 207.814453,114.371094 C208.998053,114.371094 210.064448,114.514647 211.013672,114.801758 C211.962895,115.088869 212.791989,115.466795 213.500977,115.935547 C214.209964,116.404299 214.804685,116.937497 215.285156,117.535156 C215.765627,118.132815 216.134764,118.742184 216.392578,119.363281 L212.964844,120.962891 C212.660155,120.482419 212.340822,120.057619 212.006836,119.688477 C211.67285,119.319334 211.303713,119.005861 210.899414,118.748047 C210.495115,118.490233 210.041018,118.296876 209.537109,118.167969 C209.033201,118.039062 208.458988,117.974609 207.814453,117.974609 C206.970699,117.974609 206.223636,118.109374 205.573242,118.378906 C204.922848,118.648439 204.354495,119.017576 203.868164,119.486328 C203.381834,119.95508 202.968752,120.499997 202.628906,121.121094 C202.289061,121.742191 202.016603,122.401364 201.811523,123.098633 C201.606444,123.795902 201.457032,124.513668 201.363281,125.251953 C201.269531,125.990238 201.222656,126.705075 201.222656,127.396484 C201.222656,128.509771 201.348632,129.628901 201.600586,130.753906 C201.85254,131.878912 202.248044,132.892574 202.787109,133.794922 C203.326175,134.69727 204.011715,135.429685 204.84375,135.992188 C205.675785,136.55469 206.66601,136.835938 207.814453,136.835938 C208.43555,136.835938 208.995115,136.756837 209.493164,136.598633 C209.991213,136.440429 210.44824,136.217775 210.864258,135.930664 C211.280276,135.643553 211.655272,135.300783 211.989258,134.902344 C212.323244,134.503904 212.636717,134.064456 212.929688,133.583984 L216.427734,134.919922 C216.07617,135.740238 215.639651,136.490231 215.118164,137.169922 C214.596677,137.849613 213.981449,138.429685 213.272461,138.910156 C212.563473,139.390627 211.754887,139.765624 210.84668,140.035156 C209.938472,140.304689 208.92774,140.439453 207.814453,140.439453 L207.814453,140.439453 Z M230.720703,140.439453 C229.37304,140.439453 228.166021,140.260744 227.099609,139.90332 C226.033198,139.545897 225.092778,139.059573 224.27832,138.444336 C223.463863,137.829098 222.769534,137.102543 222.195312,136.264648 C221.621091,135.426754 221.152346,134.524419 220.789062,133.557617 C220.425779,132.590815 220.159181,131.583013 219.989258,130.53418 C219.819335,129.485346 219.734375,128.439458 219.734375,127.396484 C219.734375,126.365229 219.819335,125.325201 219.989258,124.276367 C220.159181,123.227534 220.425779,122.219731 220.789062,121.25293 C221.152346,120.286128 221.621091,119.383793 222.195312,118.545898 C222.769534,117.708004 223.463863,116.981448 224.27832,116.366211 C225.092778,115.750973 226.033198,115.26465 227.099609,114.907227 C228.166021,114.549803 229.37304,114.371094 230.720703,114.371094 C232.068366,114.371094 233.275385,114.549803 234.341797,114.907227 C235.408208,115.26465 236.348629,115.750973 237.163086,116.366211 C237.977543,116.981448 238.671872,117.708004 239.246094,118.545898 C239.820315,119.383793 240.289061,120.286128 240.652344,121.25293 C241.015627,122.219731 241.279296,123.227534 241.443359,124.276367 C241.607423,125.325201 241.689453,126.365229 241.689453,127.396484 C241.689453,128.439458 241.607423,129.485346 241.443359,130.53418 C241.279296,131.583013 241.015627,132.590815 240.652344,133.557617 C240.289061,134.524419 239.820315,135.426754 239.246094,136.264648 C238.671872,137.102543 237.977543,137.829098 237.163086,138.444336 C236.348629,139.059573 235.408208,139.545897 234.341797,139.90332 C233.275385,140.260744 232.068366,140.439453 230.720703,140.439453 L230.720703,140.439453 Z M230.720703,136.835938 C231.599614,136.835938 232.384762,136.698244 233.076172,136.422852 C233.767582,136.14746 234.374021,135.775393 234.895508,135.306641 C235.416995,134.837888 235.862303,134.290042 236.231445,133.663086 C236.600588,133.03613 236.902343,132.374027 237.136719,131.676758 C237.371095,130.979489 237.541015,130.264652 237.646484,129.532227 C237.751954,128.799801 237.804688,128.087894 237.804688,127.396484 C237.804688,126.669918 237.751954,125.928715 237.646484,125.172852 C237.541015,124.416988 237.371095,123.690433 237.136719,122.993164 C236.902343,122.295895 236.600588,121.642581 236.231445,121.033203 C235.862303,120.423825 235.416995,119.893557 234.895508,119.442383 C234.374021,118.991209 233.767582,118.63379 233.076172,118.370117 C232.384762,118.106444 231.599614,117.974609 230.720703,117.974609 C229.841792,117.974609 229.056644,118.112303 228.365234,118.387695 C227.673825,118.663087 227.064456,119.035154 226.537109,119.503906 C226.009763,119.972659 225.561525,120.520505 225.192383,121.147461 C224.82324,121.774417 224.521486,122.43652 224.287109,123.133789 C224.052733,123.831058 223.882813,124.545895 223.777344,125.27832 C223.671874,126.010746 223.619141,126.716793 223.619141,127.396484 C223.619141,128.498052 223.742186,129.608393 223.988281,130.727539 C224.234376,131.846685 224.638669,132.860347 225.201172,133.768555 C225.763675,134.676762 226.496089,135.415036 227.398438,135.983398 C228.300786,136.551761 229.408197,136.835938 230.720703,136.835938 L230.720703,136.835938 Z M261.835938,140 L250.9375,122.896484 L249.917969,121.033203 L250.023438,122.896484 L250.023438,140 L246.279297,140 L246.279297,114.792969 L250.058594,114.792969 L260.693359,131.615234 L261.730469,133.548828 L261.625,131.650391 L261.625,114.792969 L265.369141,114.792969 L265.369141,140 L261.835938,140 Z M270.837891,140 L270.837891,114.792969 L286.464844,114.792969 L286.464844,118.326172 L274.582031,118.326172 L274.582031,125.234375 L282.263672,125.234375 L282.263672,128.767578 L274.582031,128.767578 L274.582031,140 L270.837891,140 Z M289.964844,140 L289.964844,114.792969 L305.591797,114.792969 L305.591797,118.326172 L293.708984,118.326172 L293.708984,125.234375 L301.390625,125.234375 L301.390625,128.767578 L293.708984,128.767578 L293.708984,136.466797 L306.382812,136.466797 L306.382812,140 L289.964844,140 Z M310.603516,140 L310.603516,114.792969 L321.220703,114.792969 C322.767586,114.792969 324.062495,115.003904 325.105469,115.425781 C326.148443,115.847658 326.986325,116.407223 327.619141,117.104492 C328.251956,117.801761 328.700194,118.595699 328.963867,119.486328 C329.22754,120.376958 329.359375,121.29687 329.359375,122.246094 C329.359375,122.97266 329.253907,123.705074 329.042969,124.443359 C328.83203,125.181644 328.506838,125.875973 328.067383,126.526367 C327.627927,127.176761 327.062503,127.750974 326.371094,128.249023 C325.679684,128.747073 324.85352,129.124999 323.892578,129.382812 L329.078125,140 L324.789062,140 L319.832031,129.699219 L314.347656,129.699219 L314.347656,140 L310.603516,140 Z M321.308594,126.095703 C322.093754,126.095703 322.749997,125.987306 323.277344,125.770508 C323.80469,125.55371 324.23242,125.263674 324.560547,124.900391 C324.888674,124.537108 325.123046,124.126955 325.263672,123.669922 C325.404298,123.212888 325.474609,122.738284 325.474609,122.246094 C325.474609,121.812498 325.413087,121.36719 325.290039,120.910156 C325.166992,120.453123 324.947267,120.037111 324.630859,119.662109 C324.314452,119.287107 323.886721,118.982423 323.347656,118.748047 C322.808591,118.513671 322.12891,118.396484 321.308594,118.396484 L314.347656,118.396484 L314.347656,126.095703 L321.308594,126.095703 Z M333.931641,140 L333.931641,114.792969 L349.558594,114.792969 L349.558594,118.326172 L337.675781,118.326172 L337.675781,125.234375 L345.357422,125.234375 L345.357422,128.767578 L337.675781,128.767578 L337.675781,136.466797 L350.349609,136.466797 L350.349609,140 L333.931641,140 Z M370.126953,140 L359.228516,122.896484 L358.208984,121.033203 L358.314453,122.896484 L358.314453,140 L354.570312,140 L354.570312,114.792969 L358.349609,114.792969 L368.984375,131.615234 L370.021484,133.548828 L369.916016,131.650391 L369.916016,114.792969 L373.660156,114.792969 L373.660156,140 L370.126953,140 Z M388.708984,140.439453 C387.408197,140.439453 386.245122,140.260744 385.219727,139.90332 C384.194331,139.545897 383.294926,139.059573 382.521484,138.444336 C381.748043,137.829098 381.08887,137.102543 380.543945,136.264648 C379.999021,135.426754 379.556642,134.524419 379.216797,133.557617 C378.876951,132.590815 378.62793,131.583013 378.469727,130.53418 C378.311523,129.485346 378.232422,128.439458 378.232422,127.396484 C378.232422,126.435542 378.311523,125.445318 378.469727,124.425781 C378.62793,123.406245 378.879881,122.413091 379.225586,121.446289 C379.571291,120.479487 380.019528,119.568364 380.570312,118.712891 C381.121097,117.857418 381.783199,117.107425 382.556641,116.462891 C383.330082,115.818356 384.226557,115.308596 385.246094,114.933594 C386.26563,114.558592 387.419915,114.371094 388.708984,114.371094 C389.892584,114.371094 390.95898,114.514647 391.908203,114.801758 C392.857427,115.088869 393.68652,115.466795 394.395508,115.935547 C395.104496,116.404299 395.699216,116.937497 396.179688,117.535156 C396.660159,118.132815 397.029296,118.742184 397.287109,119.363281 L393.859375,120.962891 C393.554686,120.482419 393.235353,120.057619 392.901367,119.688477 C392.567381,119.319334 392.198244,119.005861 391.793945,118.748047 C391.389646,118.490233 390.935549,118.296876 390.431641,118.167969 C389.927732,118.039062 389.353519,117.974609 388.708984,117.974609 C387.86523,117.974609 387.118167,118.109374 386.467773,118.378906 C385.81738,118.648439 385.249026,119.017576 384.762695,119.486328 C384.276365,119.95508 383.863283,120.499997 383.523438,121.121094 C383.183592,121.742191 382.911134,122.401364 382.706055,123.098633 C382.500976,123.795902 382.351563,124.513668 382.257812,125.251953 C382.164062,125.990238 382.117188,126.705075 382.117188,127.396484 C382.117188,128.509771 382.243163,129.628901 382.495117,130.753906 C382.747072,131.878912 383.142575,132.892574 383.681641,133.794922 C384.220706,134.69727 384.906246,135.429685 385.738281,135.992188 C386.570317,136.55469 387.560541,136.835938 388.708984,136.835938 C389.330081,136.835938 389.889646,136.756837 390.387695,136.598633 C390.885745,136.440429 391.342771,136.217775 391.758789,135.930664 C392.174807,135.643553 392.549803,135.300783 392.883789,134.902344 C393.217775,134.503904 393.531249,134.064456 393.824219,133.583984 L397.322266,134.919922 C396.970701,135.740238 396.534182,136.490231 396.012695,137.169922 C395.491208,137.849613 394.87598,138.429685 394.166992,138.910156 C393.458004,139.390627 392.649419,139.765624 391.741211,140.035156 C390.833003,140.304689 389.822271,140.439453 388.708984,140.439453 L388.708984,140.439453 Z M401.525391,140 L401.525391,114.792969 L417.152344,114.792969 L417.152344,118.326172 L405.269531,118.326172 L405.269531,125.234375 L412.951172,125.234375 L412.951172,128.767578 L405.269531,128.767578 L405.269531,136.466797 L417.943359,136.466797 L417.943359,140 L401.525391,140 Z"></path>
</svg>
