<svg class="svg-type-svef" viewBox="0 0 500 210" version="1.1" xmlns="http://www.w3.org/2000/svg" xmlns:xlink="http://www.w3.org/1999/xlink">
  <path class="hexagon" fill="#E7792B" d="M179.900651,143.933364 C179.896894,149.457974 176.022503,156.171679 171.240383,158.932637 L103.586843,197.992427 C98.8076649,200.751686 91.0510903,200.750588 86.2669572,197.992802 L18.7059454,159.047658 C13.9196145,156.288606 10.0425734,149.570834 10.046328,144.048761 L10.0993493,66.0666357 C10.1031056,60.5420255 13.977497,53.8283212 18.7596173,51.0673628 L86.4131574,12.0075732 C91.1923351,9.24831368 98.9489097,9.24941241 103.733043,12.0071976 L171.294055,50.9523421 C176.080386,53.7113942 179.957427,60.4291661 179.953672,65.9512395 L179.900651,143.933364 Z"></path>
  <path class="logo-graphic" fill="#EBEBEA" d="M142.613169,96.8376543 L160,103.463096 L160,106.648105 L142.613169,113.287498 L142.613169,109.520006 L154.647741,105.055198 L142.613169,100.605146 L142.613169,96.8376543 Z M118.004115,115.061728 L118.004115,110.246914 L120.411523,110.246914 L120.411523,100.082305 L118.004115,100.082305 L118.004115,95.2674897 L139.403292,95.2674897 L139.403292,101.687243 L133.518519,101.687243 L133.518519,100.082305 L128.703704,100.082305 L128.703704,103.024691 L132.44856,103.024691 L132.44856,107.037037 L128.703704,107.037037 L128.703704,110.246914 L131.378601,110.246914 L131.378601,115.061728 L118.004115,115.061728 Z M94.4650206,115.061728 L94.4650206,110.246914 L96.3374486,110.246914 L96.3374486,100.082305 L94.4650206,100.082305 L94.4650206,95.2674897 L115.329218,95.2674897 L115.329218,101.687243 L109.711934,101.687243 L109.711934,100.082305 L104.62963,100.082305 L104.62963,103.024691 L108.909465,103.024691 L108.909465,107.037037 L104.62963,107.037037 L104.62963,110.246914 L109.711934,110.246914 L109.711934,108.641975 L115.329218,108.641975 L115.329218,115.061728 L94.4650206,115.061728 Z M77.8993847,115.329218 L70.9360761,100.082305 L69.3209877,100.082305 L69.3209877,95.2674897 L81.090535,95.2674897 L81.090535,100.082305 L79.2008493,100.082305 L82.4468709,108.505386 L85.8502655,100.082305 L84.0329218,100.082305 L84.0329218,95.2674897 L92.8600823,95.2674897 L92.8600823,100.082305 L91.2447253,100.082305 L84.6895718,115.329218 L77.8993847,115.329218 Z M50.8643308,115.061728 L50.8643308,108.641975 L55.7453981,108.641975 C56.3278012,110.438883 57.4244511,111.304156 59.0358822,111.304156 C60.2001539,111.304156 60.7822897,110.87702 60.7822897,110.022748 C60.7822897,109.576294 60.5794242,109.206306 60.1739604,108.911979 C59.7374922,108.589212 58.8175144,108.143026 57.4140272,107.57369 C55.6467718,106.842568 54.3472564,106.211254 53.5157484,105.67948 C52.7358253,105.195732 52.0705654,104.526319 51.5197013,103.671779 C50.96857,102.826897 50.6930043,101.892133 50.6930043,100.866684 C50.6930043,99.0247935 51.3478403,97.5866965 52.6577796,96.5523935 C53.9570276,95.5175539 55.5580348,95 57.4602666,95 C59.3627656,95 60.9739295,95.4958215 62.3662551,96.4872428 L62.3662551,95.2674897 L67.18107,95.2674897 L67.18107,100.884774 L62.3568362,100.884774 C61.7642764,99.3362917 60.7144006,98.5584851 59.2072087,98.5584851 C58.1469089,98.5584851 57.6166254,98.9716697 57.6166254,99.7980389 C57.6166254,100.196735 57.7673713,100.49616 58.0685959,100.695776 C58.3596638,100.904783 59.3004894,101.365457 60.8910727,102.078067 C63.0223634,103.046904 64.4464312,103.754415 65.164078,104.200869 C65.5278461,104.419267 65.8996326,104.725399 66.2791702,105.119803 C66.6587078,105.513938 66.9730291,105.920147 67.2224013,106.338161 C67.7941132,107.268899 68.0798356,108.276104 68.0798356,109.358848 C68.0798356,111.021366 67.4041517,112.426999 66.052784,113.576403 C64.7014164,114.744857 62.9967045,115.329218 60.938114,115.329218 C59.0254583,115.329218 57.294553,114.813811 55.6790123,113.783128 L55.6790123,115.061728 L50.8643308,115.061728 Z M47.3868313,113.287498 L30,106.648105 L30,103.463096 L47.3868313,96.8376543 L47.3868313,100.605146 L35.403831,105.055198 L47.3868313,109.520006 L47.3868313,113.287498 Z"></path>
  <path class="title-1" fill="#4A4A4A" d="M210.011719,74.5234375 C209.859374,74.1601544 209.648439,73.8232437 209.378906,73.5126953 C209.109374,73.2021469 208.781252,72.9326183 208.394531,72.7041016 C208.007811,72.4755848 207.565432,72.2968756 207.067383,72.1679688 C206.569333,72.0390619 206.015628,71.9746094 205.40625,71.9746094 C204.199213,71.9746094 203.255863,72.2382786 202.576172,72.765625 C201.896481,73.2929714 201.556641,74.0371046 201.556641,74.9980469 C201.556641,75.5957061 201.744139,76.102537 202.119141,76.5185547 C202.494143,76.9345724 202.986325,77.3007797 203.595703,77.6171875 C204.205081,77.9335953 204.89941,78.2236315 205.678711,78.4873047 C206.458012,78.7509779 207.254879,79.0380844 208.069336,79.3486328 C208.883793,79.6591812 209.68066,80.0165995 210.459961,80.4208984 C211.239262,80.8251973 211.933591,81.3173799 212.542969,81.8974609 C213.152347,82.477542 213.644529,83.1748006 214.019531,83.9892578 C214.394533,84.803715 214.582031,85.7792912 214.582031,86.9160156 C214.582031,88.1230529 214.362307,89.1923782 213.922852,90.1240234 C213.483396,91.0556687 212.876957,91.8408171 212.103516,92.4794922 C211.330074,93.1181673 210.418951,93.6044905 209.370117,93.9384766 C208.321284,94.2724626 207.193365,94.4394531 205.986328,94.4394531 C204.861322,94.4394531 203.809575,94.2958999 202.831055,94.0087891 C201.852534,93.7216783 200.967777,93.3115261 200.176758,92.7783203 C199.385738,92.2451145 198.703128,91.6005897 198.128906,90.8447266 C197.554685,90.0888634 197.109377,89.2421922 196.792969,88.3046875 L200.326172,87.0214844 C200.583986,87.5839872 200.903318,88.099607 201.28418,88.5683594 C201.665041,89.0371117 202.10156,89.4384749 202.59375,89.7724609 C203.08594,90.106447 203.627927,90.3671866 204.219727,90.5546875 C204.811526,90.7421884 205.447262,90.8359375 206.126953,90.8359375 C206.806644,90.8359375 207.427732,90.7539071 207.990234,90.5898438 C208.552737,90.4257804 209.033201,90.1796891 209.431641,89.8515625 C209.83008,89.5234359 210.140624,89.1162134 210.363281,88.6298828 C210.585939,88.1435523 210.697266,87.5839875 210.697266,86.9511719 C210.697266,86.2011681 210.509768,85.5712916 210.134766,85.0615234 C209.759764,84.5517553 209.267581,84.1093769 208.658203,83.734375 C208.048825,83.3593731 207.354496,83.0312514 206.575195,82.75 C205.795895,82.4687486 204.999028,82.1816421 204.18457,81.8886719 C203.370113,81.5957017 202.573246,81.2675799 201.793945,80.9042969 C201.014645,80.5410138 200.320316,80.0957058 199.710938,79.5683594 C199.101559,79.041013 198.609377,78.4082068 198.234375,77.6699219 C197.859373,76.9316369 197.671875,76.0293022 197.671875,74.9628906 C197.671875,74.0722612 197.850584,73.2285196 198.208008,72.4316406 C198.565431,71.6347616 199.083981,70.9345733 199.763672,70.3310547 C200.443363,69.727536 201.281245,69.2500018 202.277344,68.8984375 C203.273442,68.5468732 204.41015,68.3710938 205.6875,68.3710938 C206.753912,68.3710938 207.720699,68.4970691 208.587891,68.7490234 C209.455082,69.0009778 210.213864,69.3496071 210.864258,69.7949219 C211.514652,70.2402366 212.056638,70.7675751 212.490234,71.3769531 C212.92383,71.9863312 213.251952,72.6484339 213.474609,73.3632812 L210.011719,74.5234375 Z M235.396484,94 L233.392578,88.1992188 L223.197266,88.1992188 L221.140625,94 L217.255859,94 L226.361328,68.7929688 L230.210938,68.7929688 L239.28125,94 L235.396484,94 Z M229.173828,76.3164062 C229.033202,75.9179668 228.877931,75.4550808 228.708008,74.9277344 C228.538085,74.400388 228.40625,73.919924 228.3125,73.4863281 C228.195312,73.919924 228.057618,74.3974583 227.899414,74.9189453 C227.74121,75.4404323 227.591798,75.9062479 227.451172,76.3164062 L224.339844,84.8945312 L232.232422,84.8945312 L229.173828,76.3164062 Z M261.748047,94 L261.748047,80.21875 L261.853516,76.4394531 L260.376953,80.3242188 L254.294922,94.4394531 L248.177734,80.21875 L246.666016,76.4394531 L246.771484,80.21875 L246.771484,94 L243.027344,94 L243.027344,68.7929688 L246.806641,68.7929688 L253.574219,84.5253906 L254.259766,86.3710938 L254.980469,84.5253906 L261.712891,68.7929688 L265.492188,68.7929688 L265.492188,94 L261.748047,94 Z M280.242188,72.3964844 L280.242188,94 L276.498047,94 L276.498047,72.3964844 L269.361328,72.3964844 L269.361328,68.7929688 L287.361328,68.7929688 L287.361328,72.3964844 L280.242188,72.3964844 Z M300.423828,94.4394531 C299.076165,94.4394531 297.869146,94.260744 296.802734,93.9033203 C295.736323,93.5458967 294.795903,93.0595734 293.981445,92.4443359 C293.166988,91.8290985 292.472659,91.1025433 291.898438,90.2646484 C291.324216,89.4267536 290.855471,88.5244189 290.492188,87.5576172 C290.128904,86.5908155 289.862306,85.5830131 289.692383,84.5341797 C289.52246,83.4853463 289.4375,82.4394583 289.4375,81.3964844 C289.4375,80.3652292 289.52246,79.3252006 289.692383,78.2763672 C289.862306,77.2275338 290.128904,76.2197314 290.492188,75.2529297 C290.855471,74.286128 291.324216,73.3837933 291.898438,72.5458984 C292.472659,71.7080036 293.166988,70.9814484 293.981445,70.3662109 C294.795903,69.7509735 295.736323,69.2646502 296.802734,68.9072266 C297.869146,68.5498029 299.076165,68.3710938 300.423828,68.3710938 C301.771491,68.3710938 302.97851,68.5498029 304.044922,68.9072266 C305.111333,69.2646502 306.051754,69.7509735 306.866211,70.3662109 C307.680668,70.9814484 308.374997,71.7080036 308.949219,72.5458984 C309.52344,73.3837933 309.992186,74.286128 310.355469,75.2529297 C310.718752,76.2197314 310.982421,77.2275338 311.146484,78.2763672 C311.310548,79.3252006 311.392578,80.3652292 311.392578,81.3964844 C311.392578,82.4394583 311.310548,83.4853463 311.146484,84.5341797 C310.982421,85.5830131 310.718752,86.5908155 310.355469,87.5576172 C309.992186,88.5244189 309.52344,89.4267536 308.949219,90.2646484 C308.374997,91.1025433 307.680668,91.8290985 306.866211,92.4443359 C306.051754,93.0595734 305.111333,93.5458967 304.044922,93.9033203 C302.97851,94.260744 301.771491,94.4394531 300.423828,94.4394531 L300.423828,94.4394531 Z M300.423828,90.8359375 C301.302739,90.8359375 302.087887,90.6982436 302.779297,90.4228516 C303.470707,90.1474596 304.077146,89.775393 304.598633,89.3066406 C305.12012,88.8378883 305.565428,88.2900422 305.93457,87.6630859 C306.303713,87.0361297 306.605468,86.3740269 306.839844,85.6767578 C307.07422,84.9794887 307.24414,84.2646521 307.349609,83.5322266 C307.455079,82.799801 307.507812,82.0878941 307.507812,81.3964844 C307.507812,80.6699182 307.455079,79.9287147 307.349609,79.1728516 C307.24414,78.4169884 307.07422,77.6904332 306.839844,76.9931641 C306.605468,76.295895 306.303713,75.6425812 305.93457,75.0332031 C305.565428,74.4238251 305.12012,73.8935569 304.598633,73.4423828 C304.077146,72.9912087 303.470707,72.6337904 302.779297,72.3701172 C302.087887,72.106444 301.302739,71.9746094 300.423828,71.9746094 C299.544917,71.9746094 298.759769,72.1123033 298.068359,72.3876953 C297.37695,72.6630873 296.767581,73.0351539 296.240234,73.5039062 C295.712888,73.9726586 295.26465,74.5205047 294.895508,75.1474609 C294.526365,75.7744172 294.224611,76.43652 293.990234,77.1337891 C293.755858,77.8310582 293.585938,78.5458948 293.480469,79.2783203 C293.374999,80.0107458 293.322266,80.7167935 293.322266,81.3964844 C293.322266,82.4980524 293.445311,83.6083928 293.691406,84.7275391 C293.937501,85.8466853 294.341794,86.860347 294.904297,87.7685547 C295.4668,88.6767624 296.199214,89.4150362 297.101562,89.9833984 C298.003911,90.5517607 299.111322,90.8359375 300.423828,90.8359375 L300.423828,90.8359375 Z M297.207031,65.8925781 C296.890623,65.8925781 296.594728,65.833985 296.319336,65.7167969 C296.043944,65.5996088 295.803712,65.4384776 295.598633,65.2333984 C295.393554,65.0283193 295.232422,64.7880873 295.115234,64.5126953 C294.998046,64.2373033 294.939453,63.9414078 294.939453,63.625 C294.939453,63.3085922 294.998046,63.0126967 295.115234,62.7373047 C295.232422,62.4619127 295.393554,62.2216807 295.598633,62.0166016 C295.803712,61.8115224 296.043944,61.6503912 296.319336,61.5332031 C296.594728,61.416015 296.890623,61.3574219 297.207031,61.3574219 C297.523439,61.3574219 297.819335,61.416015 298.094727,61.5332031 C298.370119,61.6503912 298.610351,61.8115224 298.81543,62.0166016 C299.020509,62.2216807 299.18164,62.4619127 299.298828,62.7373047 C299.416016,63.0126967 299.474609,63.3085922 299.474609,63.625 C299.474609,63.9414078 299.416016,64.2373033 299.298828,64.5126953 C299.18164,64.7880873 299.020509,65.0283193 298.81543,65.2333984 C298.610351,65.4384776 298.370119,65.5996088 298.094727,65.7167969 C297.819335,65.833985 297.523439,65.8925781 297.207031,65.8925781 L297.207031,65.8925781 Z M303.693359,65.8925781 C303.376952,65.8925781 303.081056,65.833985 302.805664,65.7167969 C302.530272,65.5996088 302.29004,65.4384776 302.084961,65.2333984 C301.879882,65.0283193 301.718751,64.7880873 301.601562,64.5126953 C301.484374,64.2373033 301.425781,63.9414078 301.425781,63.625 C301.425781,63.3085922 301.484374,63.0126967 301.601562,62.7373047 C301.718751,62.4619127 301.879882,62.2216807 302.084961,62.0166016 C302.29004,61.8115224 302.530272,61.6503912 302.805664,61.5332031 C303.081056,61.416015 303.376952,61.3574219 303.693359,61.3574219 C304.009767,61.3574219 304.305663,61.416015 304.581055,61.5332031 C304.856447,61.6503912 305.096679,61.8115224 305.301758,62.0166016 C305.506837,62.2216807 305.667968,62.4619127 305.785156,62.7373047 C305.902344,63.0126967 305.960938,63.3085922 305.960938,63.625 C305.960938,63.9414078 305.902344,64.2373033 305.785156,64.5126953 C305.667968,64.7880873 305.506837,65.0283193 305.301758,65.2333984 C305.096679,65.4384776 304.856447,65.5996088 304.581055,65.7167969 C304.305663,65.833985 304.009767,65.8925781 303.693359,65.8925781 L303.693359,65.8925781 Z M331.292969,94 L324.191406,80.8164062 L319.726562,86.2304688 L319.726562,94 L315.982422,94 L315.982422,68.7929688 L319.726562,68.7929688 L319.726562,81.0097656 L329.447266,68.7929688 L333.771484,68.7929688 L326.722656,77.6523438 L335.6875,94 L331.292969,94 Z"></path>
  <path class="title-2" fill="#4A4A4A" d="M208.816406,140 L205.072266,140 L196.441406,114.792969 L200.466797,114.792969 L206.197266,132.371094 C206.302735,132.710939 206.42871,133.12988 206.575195,133.62793 C206.72168,134.125979 206.859374,134.667966 206.988281,135.253906 C207.117188,134.667966 207.254882,134.125979 207.401367,133.62793 C207.547852,133.12988 207.673828,132.710939 207.779297,132.371094 L213.439453,114.792969 L217.429688,114.792969 L208.816406,140 Z M221.105469,140 L221.105469,114.792969 L236.732422,114.792969 L236.732422,118.326172 L224.849609,118.326172 L224.849609,125.234375 L232.53125,125.234375 L232.53125,128.767578 L224.849609,128.767578 L224.849609,136.466797 L237.523438,136.466797 L237.523438,140 L221.105469,140 Z M241.744141,140 L241.744141,114.792969 L257.371094,114.792969 L257.371094,118.326172 L245.488281,118.326172 L245.488281,125.234375 L253.169922,125.234375 L253.169922,128.767578 L245.488281,128.767578 L245.488281,140 L241.744141,140 Z M261.064453,140 L261.064453,114.792969 L264.808594,114.792969 L264.808594,140 L261.064453,140 Z M270.453125,129.136719 L268.115234,129.136719 L268.115234,125.673828 L270.453125,125.673828 L270.453125,114.792969 L277.519531,114.792969 C278.984382,114.792969 280.296869,114.959959 281.457031,115.293945 C282.617193,115.627931 283.642574,116.087888 284.533203,116.673828 C285.423833,117.259769 286.185544,117.954098 286.818359,118.756836 C287.451175,119.559574 287.969725,120.426753 288.374023,121.358398 C288.778322,122.290044 289.074218,123.271479 289.261719,124.302734 C289.44922,125.33399 289.542969,126.365229 289.542969,127.396484 C289.542969,128.357427 289.458009,129.338862 289.288086,130.34082 C289.118163,131.342778 288.836916,132.309566 288.444336,133.241211 C288.051756,134.172856 287.544925,135.048824 286.923828,135.869141 C286.302731,136.689457 285.54102,137.407223 284.638672,138.022461 C283.736324,138.637698 282.684576,139.121092 281.483398,139.472656 C280.282221,139.824221 278.91407,140 277.378906,140 L270.453125,140 L270.453125,129.136719 Z M277.976562,136.466797 C278.937505,136.466797 279.795895,136.340822 280.551758,136.088867 C281.307621,135.836913 281.969724,135.494143 282.538086,135.060547 C283.106448,134.626951 283.586912,134.11719 283.979492,133.53125 C284.372072,132.94531 284.694335,132.315433 284.946289,131.641602 C285.198243,130.96777 285.379882,130.270511 285.491211,129.549805 C285.60254,128.829098 285.658203,128.111332 285.658203,127.396484 C285.658203,126.25976 285.520509,125.149419 285.245117,124.06543 C284.969725,122.98144 284.539065,122.014653 283.953125,121.165039 C283.367185,120.315425 282.614262,119.629885 281.694336,119.108398 C280.774409,118.586911 279.669928,118.326172 278.380859,118.326172 L274.197266,118.326172 L274.197266,125.673828 L279.646484,125.673828 L279.646484,129.136719 L274.197266,129.136719 L274.197266,136.466797 L277.976562,136.466797 Z M309.671875,140 L298.773438,122.896484 L297.753906,121.033203 L297.859375,122.896484 L297.859375,140 L294.115234,140 L294.115234,114.792969 L297.894531,114.792969 L308.529297,131.615234 L309.566406,133.548828 L309.460938,131.650391 L309.460938,114.792969 L313.205078,114.792969 L313.205078,140 L309.671875,140 Z M335.091797,140 L333.087891,134.199219 L322.892578,134.199219 L320.835938,140 L316.951172,140 L326.056641,114.792969 L329.90625,114.792969 L338.976562,140 L335.091797,140 Z M328.869141,122.316406 C328.728515,121.917967 328.573243,121.455081 328.40332,120.927734 C328.233398,120.400388 328.101563,119.919924 328.007812,119.486328 C327.890624,119.919924 327.75293,120.397458 327.594727,120.918945 C327.436523,121.440432 327.28711,121.906248 327.146484,122.316406 L324.035156,130.894531 L331.927734,130.894531 L328.869141,122.316406 Z M342.722656,129.136719 L340.384766,129.136719 L340.384766,125.673828 L342.722656,125.673828 L342.722656,114.792969 L349.789062,114.792969 C351.253914,114.792969 352.5664,114.959959 353.726562,115.293945 C354.886725,115.627931 355.912105,116.087888 356.802734,116.673828 C357.693364,117.259769 358.455075,117.954098 359.087891,118.756836 C359.720706,119.559574 360.239256,120.426753 360.643555,121.358398 C361.047854,122.290044 361.343749,123.271479 361.53125,124.302734 C361.718751,125.33399 361.8125,126.365229 361.8125,127.396484 C361.8125,128.357427 361.72754,129.338862 361.557617,130.34082 C361.387694,131.342778 361.106447,132.309566 360.713867,133.241211 C360.321287,134.172856 359.814456,135.048824 359.193359,135.869141 C358.572263,136.689457 357.810551,137.407223 356.908203,138.022461 C356.005855,138.637698 354.954108,139.121092 353.75293,139.472656 C352.551752,139.824221 351.183601,140 349.648438,140 L342.722656,140 L342.722656,129.136719 Z M350.246094,136.466797 C351.207036,136.466797 352.065426,136.340822 352.821289,136.088867 C353.577152,135.836913 354.239255,135.494143 354.807617,135.060547 C355.375979,134.626951 355.856443,134.11719 356.249023,133.53125 C356.641604,132.94531 356.963866,132.315433 357.21582,131.641602 C357.467775,130.96777 357.649414,130.270511 357.760742,129.549805 C357.872071,128.829098 357.927734,128.111332 357.927734,127.396484 C357.927734,126.25976 357.79004,125.149419 357.514648,124.06543 C357.239256,122.98144 356.808597,122.014653 356.222656,121.165039 C355.636716,120.315425 354.883794,119.629885 353.963867,119.108398 C353.043941,118.586911 351.93946,118.326172 350.650391,118.326172 L346.466797,118.326172 L346.466797,125.673828 L351.916016,125.673828 L351.916016,129.136719 L346.466797,129.136719 L346.466797,136.466797 L350.246094,136.466797 Z M381.044922,140 L379.041016,134.199219 L368.845703,134.199219 L366.789062,140 L362.904297,140 L372.009766,114.792969 L375.859375,114.792969 L384.929688,140 L381.044922,140 Z M374.822266,122.316406 C374.68164,121.917967 374.526368,121.455081 374.356445,120.927734 C374.186523,120.400388 374.054688,119.919924 373.960938,119.486328 C373.843749,119.919924 373.706055,120.397458 373.547852,120.918945 C373.389648,121.440432 373.240235,121.906248 373.099609,122.316406 L369.988281,130.894531 L377.880859,130.894531 L374.822266,122.316406 Z M388.675781,140 L388.675781,114.792969 L399.292969,114.792969 C400.839851,114.792969 402.13476,115.003904 403.177734,115.425781 C404.220708,115.847658 405.058591,116.407223 405.691406,117.104492 C406.324222,117.801761 406.77246,118.595699 407.036133,119.486328 C407.299806,120.376958 407.431641,121.29687 407.431641,122.246094 C407.431641,122.97266 407.326173,123.705074 407.115234,124.443359 C406.904296,125.181644 406.579104,125.875973 406.139648,126.526367 C405.700193,127.176761 405.134769,127.750974 404.443359,128.249023 C403.75195,128.747073 402.925786,129.124999 401.964844,129.382812 L407.150391,140 L402.861328,140 L397.904297,129.699219 L392.419922,129.699219 L392.419922,140 L388.675781,140 Z M399.380859,126.095703 C400.16602,126.095703 400.822263,125.987306 401.349609,125.770508 C401.876956,125.55371 402.304686,125.263674 402.632812,124.900391 C402.960939,124.537108 403.195312,124.126955 403.335938,123.669922 C403.476563,123.212888 403.546875,122.738284 403.546875,122.246094 C403.546875,121.812498 403.485352,121.36719 403.362305,120.910156 C403.239257,120.453123 403.019533,120.037111 402.703125,119.662109 C402.386717,119.287107 401.958987,118.982423 401.419922,118.748047 C400.880857,118.513671 400.201176,118.396484 399.380859,118.396484 L392.419922,118.396484 L392.419922,126.095703 L399.380859,126.095703 Z M412.197266,140 L412.197266,114.792969 L415.941406,114.792969 L415.941406,140 L412.197266,140 Z M437.142578,140 L426.244141,122.896484 L425.224609,121.033203 L425.330078,122.896484 L425.330078,140 L421.585938,140 L421.585938,114.792969 L425.365234,114.792969 L436,131.615234 L437.037109,133.548828 L436.931641,131.650391 L436.931641,114.792969 L440.675781,114.792969 L440.675781,140 L437.142578,140 Z M457.921875,120.523438 C457.76953,120.160154 457.558595,119.823244 457.289062,119.512695 C457.01953,119.202147 456.691408,118.932618 456.304688,118.704102 C455.917967,118.475585 455.475588,118.296876 454.977539,118.167969 C454.47949,118.039062 453.925784,117.974609 453.316406,117.974609 C452.109369,117.974609 451.166019,118.238279 450.486328,118.765625 C449.806637,119.292971 449.466797,120.037105 449.466797,120.998047 C449.466797,121.595706 449.654295,122.102537 450.029297,122.518555 C450.404299,122.934572 450.896481,123.30078 451.505859,123.617188 C452.115237,123.933595 452.809566,124.223631 453.588867,124.487305 C454.368168,124.750978 455.165035,125.038084 455.979492,125.348633 C456.793949,125.659181 457.590816,126.0166 458.370117,126.420898 C459.149418,126.825197 459.843747,127.31738 460.453125,127.897461 C461.062503,128.477542 461.554686,129.174801 461.929688,129.989258 C462.304689,130.803715 462.492188,131.779291 462.492188,132.916016 C462.492188,134.123053 462.272463,135.192378 461.833008,136.124023 C461.393552,137.055669 460.787113,137.840817 460.013672,138.479492 C459.240231,139.118167 458.329107,139.604491 457.280273,139.938477 C456.23144,140.272463 455.103522,140.439453 453.896484,140.439453 C452.771479,140.439453 451.719731,140.2959 450.741211,140.008789 C449.76269,139.721678 448.877934,139.311526 448.086914,138.77832 C447.295894,138.245115 446.613284,137.60059 446.039062,136.844727 C445.464841,136.088863 445.019533,135.242192 444.703125,134.304688 L448.236328,133.021484 C448.494142,133.583987 448.813475,134.099607 449.194336,134.568359 C449.575197,135.037112 450.011716,135.438475 450.503906,135.772461 C450.996096,136.106447 451.538083,136.367187 452.129883,136.554688 C452.721683,136.742188 453.357418,136.835938 454.037109,136.835938 C454.7168,136.835938 455.337888,136.753907 455.900391,136.589844 C456.462893,136.42578 456.943357,136.179689 457.341797,135.851562 C457.740236,135.523436 458.05078,135.116213 458.273438,134.629883 C458.496095,134.143552 458.607422,133.583988 458.607422,132.951172 C458.607422,132.201168 458.419924,131.571292 458.044922,131.061523 C457.66992,130.551755 457.177737,130.109377 456.568359,129.734375 C455.958981,129.359373 455.264652,129.031251 454.485352,128.75 C453.706051,128.468749 452.909184,128.181642 452.094727,127.888672 C451.280269,127.595702 450.483402,127.26758 449.704102,126.904297 C448.924801,126.541014 448.230472,126.095706 447.621094,125.568359 C447.011716,125.041013 446.519533,124.408207 446.144531,123.669922 C445.769529,122.931637 445.582031,122.029302 445.582031,120.962891 C445.582031,120.072261 445.76074,119.22852 446.118164,118.431641 C446.475588,117.634762 446.994137,116.934573 447.673828,116.331055 C448.353519,115.727536 449.191401,115.250002 450.1875,114.898438 C451.183599,114.546873 452.320306,114.371094 453.597656,114.371094 C454.664068,114.371094 455.630855,114.497069 456.498047,114.749023 C457.365239,115.000978 458.12402,115.349607 458.774414,115.794922 C459.424808,116.240237 459.966795,116.767575 460.400391,117.376953 C460.833987,117.986331 461.162108,118.648434 461.384766,119.363281 L457.921875,120.523438 Z"></path>
</svg>
